<svg xmlns="http://www.w3.org/2000/svg" xmlns:xlink="http://www.w3.org/1999/xlink" width="100" zoomAndPan="magnify" viewBox="0 0 375 374.999991" height="100" preserveAspectRatio="xMidYMid meet" version="1.0"><defs><clipPath id="3cd142967b"><path d="M 112.5 133.96875 L 262.5 133.96875 L 262.5 241.21875 L 112.5 241.21875 Z M 112.5 133.96875 " clip-rule="nonzero"/></clipPath></defs><g clip-path="url(#3cd142967b)"><path fill="#602556" d="M 128.617188 133.96875 C 119.746094 133.96875 112.554688 141.160156 112.554688 150.054688 C 112.753906 174.449219 112.558594 200.269531 112.554688 225.132812 C 112.554688 233.691406 119.203125 240.621094 127.613281 241.136719 L 247.054688 241.21875 C 255.617188 240.871094 262.445312 233.804688 262.445312 225.132812 L 262.445312 147.292969 C 261.144531 139.707031 254.570312 133.96875 246.636719 133.96875 C 207.316406 133.988281 167.949219 133.96875 128.613281 133.96875 Z M 128.363281 142.429688 L 247.136719 142.429688 L 189.675781 199.996094 C 188.625 201.046875 186.957031 201.046875 185.910156 199.996094 Z M 254.414062 146.535156 L 254.414062 224.546875 C 254.414062 229.191406 252.742188 231.816406 249.394531 232.757812 L 208.914062 192.121094 L 254.414062 146.539062 Z M 121.507812 146.871094 L 166.257812 191.699219 L 125.355469 232.671875 C 122.554688 231.726562 121.582031 229.46875 121.507812 226.386719 Z M 171.945312 197.3125 L 185.914062 211.386719 C 186.960938 212.4375 188.628906 212.4375 189.675781 211.386719 L 203.226562 197.8125 L 238.523438 233.175781 L 136.148438 233.175781 Z M 171.945312 197.3125 " fill-opacity="1" fill-rule="nonzero"/></g></svg>