<svg xmlns="http://www.w3.org/2000/svg" xmlns:xlink="http://www.w3.org/1999/xlink" width="200" zoomAndPan="magnify" viewBox="0 0 75 74.999997" height="200" preserveAspectRatio="xMidYMid meet" version="1.0"><defs><clipPath id="631550682c"><path d="M 22 8.195312 L 59 8.195312 L 59 44 L 22 44 Z M 22 8.195312 " clip-rule="nonzero"/></clipPath><clipPath id="edcb1706be"><path d="M 38.082031 41.757812 L 63.359375 41.757812 L 63.359375 66.695312 L 38.082031 66.695312 Z M 38.082031 41.757812 " clip-rule="nonzero"/></clipPath><clipPath id="84ab49212f"><path d="M 60.746094 38.414062 L 74.984375 38.414062 L 74.984375 52.582031 L 60.746094 52.582031 Z M 60.746094 38.414062 " clip-rule="nonzero"/></clipPath></defs><g clip-path="url(#631550682c)"><path fill="#4f4c4c" d="M 40.878906 36.992188 C 34.96875 36.992188 30.175781 32.199219 30.175781 26.289062 C 30.175781 20.378906 34.96875 15.589844 40.878906 15.589844 C 46.785156 15.589844 51.578125 20.378906 51.578125 26.289062 C 51.578125 32.199219 46.785156 36.992188 40.878906 36.992188 Z M 54.5625 27.636719 L 58.945312 25.320312 C 58.878906 24.070312 58.6875 22.855469 58.382812 21.6875 L 53.582031 21.023438 C 53.191406 20.078125 52.695312 19.183594 52.109375 18.355469 L 53.964844 13.796875 C 53.148438 12.941406 52.25 12.167969 51.28125 11.484375 L 47.175781 14.0625 C 46.21875 13.570312 45.191406 13.183594 44.117188 12.925781 L 42.621094 8.277344 C 42.046875 8.222656 41.464844 8.195312 40.878906 8.195312 C 40.289062 8.195312 39.707031 8.222656 39.132812 8.277344 L 37.636719 12.925781 C 36.5625 13.183594 35.539062 13.570312 34.578125 14.0625 L 30.472656 11.484375 C 29.503906 12.167969 28.605469 12.941406 27.789062 13.796875 L 29.644531 18.355469 C 29.058594 19.183594 28.5625 20.078125 28.171875 21.023438 L 23.375 21.6875 C 23.066406 22.855469 22.875 24.070312 22.808594 25.320312 L 27.191406 27.636719 C 27.28125 28.554688 27.460938 29.449219 27.722656 30.304688 L 24.460938 33.910156 C 25.003906 35.074219 25.664062 36.171875 26.433594 37.1875 L 31.289062 36.144531 C 31.867188 36.710938 32.5 37.226562 33.171875 37.679688 L 32.988281 42.578125 C 34.15625 43.144531 35.394531 43.589844 36.683594 43.894531 L 39.71875 39.992188 C 40.101562 40.023438 40.488281 40.042969 40.878906 40.042969 C 41.265625 40.042969 41.652344 40.023438 42.035156 39.992188 L 45.070312 43.894531 C 46.363281 43.589844 47.597656 43.144531 48.765625 42.578125 L 48.582031 37.679688 C 49.257812 37.226562 49.886719 36.710938 50.464844 36.144531 L 55.324219 37.1875 C 56.089844 36.171875 56.75 35.074219 57.292969 33.910156 L 54.03125 30.304688 C 54.292969 29.449219 54.472656 28.554688 54.5625 27.636719 " fill-opacity="1" fill-rule="nonzero"/></g><g clip-path="url(#edcb1706be)"><path fill="#4f4c4c" d="M 50.695312 61.878906 C 46.570312 61.878906 43.226562 58.535156 43.226562 54.410156 C 43.226562 50.289062 46.570312 46.945312 50.695312 46.945312 C 54.816406 46.945312 58.160156 50.289062 58.160156 54.410156 C 58.160156 58.535156 54.816406 61.878906 50.695312 61.878906 Z M 60.246094 55.351562 L 63.304688 53.734375 C 63.257812 52.863281 63.125 52.015625 62.910156 51.199219 L 59.5625 50.738281 C 59.289062 50.074219 58.941406 49.453125 58.535156 48.875 L 59.828125 45.691406 C 59.257812 45.097656 58.632812 44.554688 57.957031 44.078125 L 55.089844 45.878906 C 54.421875 45.535156 53.707031 45.265625 52.957031 45.082031 L 51.910156 41.84375 C 51.511719 41.804688 51.105469 41.785156 50.695312 41.785156 C 50.285156 41.785156 49.878906 41.804688 49.476562 41.84375 L 48.433594 45.082031 C 47.683594 45.265625 46.96875 45.535156 46.296875 45.878906 L 43.433594 44.078125 C 42.757812 44.554688 42.128906 45.097656 41.5625 45.691406 L 42.855469 48.875 C 42.445312 49.453125 42.101562 50.074219 41.828125 50.738281 L 38.480469 51.199219 C 38.265625 52.015625 38.128906 52.863281 38.085938 53.734375 L 41.144531 55.351562 C 41.207031 55.992188 41.332031 56.613281 41.511719 57.210938 L 39.238281 59.730469 C 39.617188 60.542969 40.078125 61.308594 40.613281 62.015625 L 44.003906 61.289062 C 44.40625 61.683594 44.847656 62.042969 45.316406 62.359375 L 45.1875 65.777344 C 46.003906 66.175781 46.867188 66.484375 47.765625 66.699219 L 49.886719 63.972656 C 50.152344 63.996094 50.421875 64.007812 50.695312 64.007812 C 50.964844 64.007812 51.234375 63.996094 51.503906 63.972656 L 53.621094 66.699219 C 54.523438 66.484375 55.382812 66.175781 56.199219 65.777344 L 56.070312 62.359375 C 56.542969 62.042969 56.980469 61.683594 57.386719 61.289062 L 60.773438 62.015625 C 61.308594 61.308594 61.773438 60.542969 62.152344 59.730469 L 59.875 57.210938 C 60.058594 56.613281 60.183594 55.992188 60.246094 55.351562 " fill-opacity="1" fill-rule="nonzero"/></g><g clip-path="url(#84ab49212f)"><path fill="#4f4c4c" d="M 67.867188 49.796875 C 65.539062 49.796875 63.652344 47.910156 63.652344 45.582031 C 63.652344 43.253906 65.539062 41.367188 67.867188 41.367188 C 70.195312 41.367188 72.082031 43.253906 72.082031 45.582031 C 72.082031 47.910156 70.195312 49.796875 67.867188 49.796875 Z M 73.257812 46.113281 L 74.984375 45.199219 C 74.960938 44.707031 74.882812 44.230469 74.761719 43.769531 L 72.875 43.507812 C 72.71875 43.136719 72.523438 42.78125 72.292969 42.457031 L 73.023438 40.660156 C 72.703125 40.324219 72.347656 40.019531 71.96875 39.75 L 70.347656 40.765625 C 69.972656 40.570312 69.566406 40.417969 69.144531 40.316406 L 68.554688 38.488281 C 68.328125 38.464844 68.101562 38.453125 67.867188 38.453125 C 67.636719 38.453125 67.40625 38.464844 67.183594 38.488281 L 66.589844 40.316406 C 66.167969 40.417969 65.765625 40.570312 65.386719 40.765625 L 63.769531 39.75 C 63.386719 40.019531 63.035156 40.324219 62.714844 40.660156 L 63.445312 42.457031 C 63.214844 42.78125 63.019531 43.136719 62.863281 43.507812 L 60.972656 43.769531 C 60.851562 44.230469 60.777344 44.707031 60.75 45.199219 L 62.476562 46.113281 C 62.511719 46.472656 62.582031 46.824219 62.6875 47.164062 L 61.402344 48.582031 C 61.617188 49.042969 61.875 49.476562 62.179688 49.875 L 64.089844 49.464844 C 64.320312 49.6875 64.566406 49.890625 64.832031 50.070312 L 64.761719 52 C 65.222656 52.222656 65.707031 52.394531 66.214844 52.515625 L 67.414062 50.980469 C 67.5625 50.992188 67.714844 51 67.867188 51 C 68.023438 51 68.175781 50.992188 68.324219 50.980469 L 69.519531 52.515625 C 70.027344 52.394531 70.515625 52.222656 70.976562 52 L 70.902344 50.070312 C 71.167969 49.890625 71.417969 49.6875 71.644531 49.464844 L 73.558594 49.875 C 73.859375 49.476562 74.121094 49.042969 74.335938 48.582031 L 73.050781 47.164062 C 73.152344 46.824219 73.222656 46.472656 73.257812 46.113281 " fill-opacity="1" fill-rule="nonzero"/></g><path fill="#4f4c4c" d="M 11.09375 27.945312 C 7.472656 27.945312 4.535156 25.007812 4.535156 21.382812 C 4.535156 17.761719 7.472656 14.824219 11.09375 14.824219 C 14.71875 14.824219 17.65625 17.761719 17.65625 21.382812 C 17.65625 25.007812 14.71875 27.945312 11.09375 27.945312 Z M 19.484375 22.210938 L 22.171875 20.789062 C 22.132812 20.023438 22.015625 19.277344 21.828125 18.5625 L 18.886719 18.15625 C 18.644531 17.574219 18.339844 17.027344 17.980469 16.519531 L 19.117188 13.722656 C 18.617188 13.199219 18.066406 12.722656 17.472656 12.304688 L 14.957031 13.886719 C 14.367188 13.582031 13.738281 13.347656 13.082031 13.1875 L 12.164062 10.339844 C 11.8125 10.304688 11.453125 10.289062 11.09375 10.289062 C 10.734375 10.289062 10.378906 10.304688 10.027344 10.339844 L 9.105469 13.1875 C 8.449219 13.347656 7.820312 13.582031 7.234375 13.886719 L 4.714844 12.304688 C 4.121094 12.722656 3.570312 13.199219 3.070312 13.722656 L 4.207031 16.519531 C 3.847656 17.027344 3.542969 17.574219 3.304688 18.15625 L 0.363281 18.5625 C 0.175781 19.277344 0.0546875 20.023438 0.015625 20.789062 L 2.703125 22.210938 C 2.757812 22.773438 2.867188 23.320312 3.027344 23.84375 L 1.027344 26.054688 C 1.359375 26.769531 1.765625 27.445312 2.238281 28.066406 L 5.214844 27.425781 C 5.570312 27.773438 5.957031 28.089844 6.371094 28.367188 L 6.257812 31.371094 C 6.972656 31.71875 7.730469 31.992188 8.523438 32.179688 L 10.382812 29.785156 C 10.617188 29.804688 10.855469 29.816406 11.09375 29.816406 C 11.332031 29.816406 11.570312 29.804688 11.804688 29.785156 L 13.667969 32.179688 C 14.457031 31.992188 15.214844 31.71875 15.929688 31.371094 L 15.820312 28.367188 C 16.230469 28.089844 16.617188 27.773438 16.972656 27.425781 L 19.953125 28.066406 C 20.421875 27.445312 20.828125 26.769531 21.160156 26.054688 L 19.160156 23.84375 C 19.320312 23.320312 19.429688 22.773438 19.484375 22.210938 " fill-opacity="1" fill-rule="nonzero"/></svg>