<svg xmlns="http://www.w3.org/2000/svg" xmlns:xlink="http://www.w3.org/1999/xlink" width="100" zoomAndPan="magnify" viewBox="0 0 375 374.999991" height="100" preserveAspectRatio="xMidYMid meet" version="1.0"><defs><g/></defs><g fill="#602556" fill-opacity="1"><g transform="translate(94.67322, 286.9251)"><g><path d="M -1.15625 -3.390625 L -31.53125 -3.390625 C -32.1875 -3.390625 -32.539062 -3.804688 -32.59375 -4.640625 L -32.59375 -12.84375 C -32.59375 -15.632812 -31.832031 -17.863281 -30.3125 -19.53125 C -28.800781 -21.195312 -26.410156 -22.03125 -23.140625 -22.03125 L -22.703125 -22.03125 C -19.429688 -22.03125 -17.03125 -21.1875 -15.5 -19.5 C -13.96875 -17.820312 -13.203125 -15.570312 -13.203125 -12.75 L -13.203125 -6.328125 L -1.15625 -6.328125 C -0.800781 -6.328125 -0.519531 -6.175781 -0.3125 -5.875 C -0.101562 -5.582031 0 -5.242188 0 -4.859375 C 0 -4.441406 -0.101562 -4.09375 -0.3125 -3.8125 C -0.519531 -3.53125 -0.800781 -3.390625 -1.15625 -3.390625 Z M -15.734375 -6.328125 L -15.734375 -12.75 C -15.734375 -14.769531 -16.296875 -16.332031 -17.421875 -17.4375 C -18.554688 -18.539062 -20.269531 -19.09375 -22.5625 -19.09375 L -23.09375 -19.09375 C -27.613281 -19.09375 -29.875 -16.976562 -29.875 -12.75 L -29.875 -6.328125 Z M -15.734375 -6.328125 "/></g></g></g><g fill="#602556" fill-opacity="1"><g transform="translate(94.67322, 263.427193)"><g><path d="M -1.15625 -3.390625 L -31.53125 -3.390625 C -32.238281 -3.390625 -32.59375 -3.878906 -32.59375 -4.859375 C -32.59375 -5.835938 -32.238281 -6.328125 -31.53125 -6.328125 L -2.71875 -6.328125 L -2.71875 -19.046875 C -2.71875 -19.691406 -2.269531 -20.015625 -1.375 -20.015625 C -0.457031 -20.015625 0 -19.691406 0 -19.046875 L 0 -4.734375 C 0 -4.367188 -0.101562 -4.050781 -0.3125 -3.78125 C -0.519531 -3.519531 -0.800781 -3.390625 -1.15625 -3.390625 Z M -1.15625 -3.390625 "/></g></g></g><g fill="#602556" fill-opacity="1"><g transform="translate(94.67322, 242.782921)"><g><path d="M -9.28125 -3.25 L -31.53125 -3.25 C -32.238281 -3.25 -32.59375 -3.738281 -32.59375 -4.71875 C -32.59375 -5.707031 -32.238281 -6.203125 -31.53125 -6.203125 L -9.28125 -6.203125 C -7.019531 -6.203125 -5.316406 -6.757812 -4.171875 -7.875 C -3.023438 -8.988281 -2.453125 -10.570312 -2.453125 -12.625 C -2.453125 -14.675781 -3.023438 -16.257812 -4.171875 -17.375 C -5.316406 -18.488281 -7.019531 -19.046875 -9.28125 -19.046875 L -31.53125 -19.046875 C -32.238281 -19.046875 -32.59375 -19.535156 -32.59375 -20.515625 C -32.59375 -21.492188 -32.238281 -21.984375 -31.53125 -21.984375 L -9.28125 -21.984375 C -5.976562 -21.984375 -3.5625 -21.128906 -2.03125 -19.421875 C -0.5 -17.710938 0.265625 -15.445312 0.265625 -12.625 C 0.265625 -9.800781 -0.5 -7.53125 -2.03125 -5.8125 C -3.5625 -4.101562 -5.976562 -3.25 -9.28125 -3.25 Z M -9.28125 -3.25 "/></g></g></g><g fill="#602556" fill-opacity="1"><g transform="translate(94.67322, 217.546084)"><g><path d="M -1.15625 -3.390625 L -31.171875 -3.390625 C -32.117188 -3.390625 -32.59375 -3.878906 -32.59375 -4.859375 C -32.59375 -5.722656 -31.910156 -6.507812 -30.546875 -7.21875 L -15.734375 -14.890625 L -30.546875 -22.5625 C -31.910156 -23.28125 -32.59375 -24.066406 -32.59375 -24.921875 C -32.59375 -25.910156 -32.117188 -26.40625 -31.171875 -26.40625 L -1.15625 -26.40625 C -0.800781 -26.40625 -0.519531 -26.257812 -0.3125 -25.96875 C -0.101562 -25.6875 0 -25.335938 0 -24.921875 C 0 -24.535156 -0.101562 -24.191406 -0.3125 -23.890625 C -0.519531 -23.597656 -0.800781 -23.453125 -1.15625 -23.453125 L -26.21875 -23.453125 L -12.21875 -16.046875 C -11.59375 -15.722656 -11.28125 -15.320312 -11.28125 -14.84375 C -11.28125 -14.40625 -11.59375 -14.019531 -12.21875 -13.6875 L -26.359375 -6.328125 L -1.15625 -6.328125 C -0.800781 -6.328125 -0.519531 -6.175781 -0.3125 -5.875 C -0.101562 -5.582031 0 -5.242188 0 -4.859375 C 0 -4.441406 -0.101562 -4.09375 -0.3125 -3.8125 C -0.519531 -3.53125 -0.800781 -3.390625 -1.15625 -3.390625 Z M -1.15625 -3.390625 "/></g></g></g><g fill="#602556" fill-opacity="1"><g transform="translate(94.67322, 187.761264)"><g><path d="M -1.15625 -3.390625 L -31.171875 -3.390625 C -32.117188 -3.390625 -32.59375 -3.878906 -32.59375 -4.859375 C -32.59375 -5.722656 -31.910156 -6.507812 -30.546875 -7.21875 L -15.734375 -14.890625 L -30.546875 -22.5625 C -31.910156 -23.28125 -32.59375 -24.066406 -32.59375 -24.921875 C -32.59375 -25.910156 -32.117188 -26.40625 -31.171875 -26.40625 L -1.15625 -26.40625 C -0.800781 -26.40625 -0.519531 -26.257812 -0.3125 -25.96875 C -0.101562 -25.6875 0 -25.335938 0 -24.921875 C 0 -24.535156 -0.101562 -24.191406 -0.3125 -23.890625 C -0.519531 -23.597656 -0.800781 -23.453125 -1.15625 -23.453125 L -26.21875 -23.453125 L -12.21875 -16.046875 C -11.59375 -15.722656 -11.28125 -15.320312 -11.28125 -14.84375 C -11.28125 -14.40625 -11.59375 -14.019531 -12.21875 -13.6875 L -26.359375 -6.328125 L -1.15625 -6.328125 C -0.800781 -6.328125 -0.519531 -6.175781 -0.3125 -5.875 C -0.101562 -5.582031 0 -5.242188 0 -4.859375 C 0 -4.441406 -0.101562 -4.09375 -0.3125 -3.8125 C -0.519531 -3.53125 -0.800781 -3.390625 -1.15625 -3.390625 Z M -1.15625 -3.390625 "/></g></g></g><g fill="#602556" fill-opacity="1"><g transform="translate(94.67322, 157.976445)"><g><path d="M -4.5 -1.609375 C -4.863281 -1.609375 -5.226562 -1.75 -5.59375 -2.03125 C -5.96875 -2.3125 -6.15625 -2.613281 -6.15625 -2.9375 C -6.15625 -3.175781 -5.960938 -3.472656 -5.578125 -3.828125 L -4.28125 -5.078125 C -3.800781 -5.523438 -3.375 -6.234375 -3 -7.203125 C -2.632812 -8.171875 -2.453125 -9.289062 -2.453125 -10.5625 C -2.453125 -12.675781 -2.976562 -14.3125 -4.03125 -15.46875 C -5.09375 -16.632812 -6.617188 -17.21875 -8.609375 -17.21875 C -9.941406 -17.21875 -11.078125 -16.941406 -12.015625 -16.390625 C -12.953125 -15.835938 -13.675781 -15.128906 -14.1875 -14.265625 C -14.71875 -13.429688 -15.191406 -12.484375 -15.609375 -11.421875 L -16.859375 -8.203125 C -17.273438 -7.128906 -17.769531 -6.171875 -18.34375 -5.328125 C -18.925781 -4.484375 -19.742188 -3.785156 -20.796875 -3.234375 C -21.859375 -2.679688 -23.117188 -2.40625 -24.578125 -2.40625 C -26.117188 -2.40625 -27.445312 -2.691406 -28.5625 -3.265625 C -29.675781 -3.847656 -30.515625 -4.628906 -31.078125 -5.609375 C -31.640625 -6.597656 -32.046875 -7.601562 -32.296875 -8.625 C -32.554688 -9.65625 -32.6875 -10.734375 -32.6875 -11.859375 C -32.6875 -13.671875 -32.425781 -15.375 -31.90625 -16.96875 C -31.382812 -18.5625 -30.738281 -19.359375 -29.96875 -19.359375 C -29.613281 -19.359375 -29.25 -19.226562 -28.875 -18.96875 C -28.5 -18.71875 -28.3125 -18.414062 -28.3125 -18.0625 C -28.3125 -17.882812 -28.453125 -17.539062 -28.734375 -17.03125 C -29.023438 -16.53125 -29.3125 -15.828125 -29.59375 -14.921875 C -29.875 -14.015625 -30.015625 -12.976562 -30.015625 -11.8125 C -30.015625 -9.945312 -29.613281 -8.398438 -28.8125 -7.171875 C -28.007812 -5.953125 -26.6875 -5.34375 -24.84375 -5.34375 C -23.5625 -5.34375 -22.488281 -5.707031 -21.625 -6.4375 C -20.757812 -7.164062 -20.132812 -8.082031 -19.75 -9.1875 C -19.363281 -10.289062 -18.898438 -11.476562 -18.359375 -12.75 C -17.828125 -14.03125 -17.253906 -15.21875 -16.640625 -16.3125 C -16.035156 -17.414062 -15.070312 -18.332031 -13.75 -19.0625 C -12.425781 -19.789062 -10.800781 -20.15625 -8.875 -20.15625 C -5.8125 -20.15625 -3.515625 -19.304688 -1.984375 -17.609375 C -0.453125 -15.921875 0.3125 -13.632812 0.3125 -10.75 C 0.3125 -8.164062 -0.242188 -5.992188 -1.359375 -4.234375 C -2.472656 -2.484375 -3.519531 -1.609375 -4.5 -1.609375 Z M -4.5 -1.609375 "/></g></g></g><g fill="#602556" fill-opacity="1"><g transform="translate(94.67322, 135.949949)"><g><path d="M -1.25 -0.9375 C -1.394531 -0.9375 -1.5 -0.953125 -1.5625 -0.984375 L -31.84375 -10.296875 C -32.519531 -10.503906 -32.859375 -11.082031 -32.859375 -12.03125 C -32.859375 -12.988281 -32.519531 -13.585938 -31.84375 -13.828125 L -1.5625 -23.09375 C -1.53125 -23.09375 -1.484375 -23.097656 -1.421875 -23.109375 C -1.367188 -23.128906 -1.328125 -23.140625 -1.296875 -23.140625 C -0.941406 -23.140625 -0.632812 -22.945312 -0.375 -22.5625 C -0.125 -22.175781 0 -21.773438 0 -21.359375 C 0 -20.796875 -0.253906 -20.425781 -0.765625 -20.25 L -7.625 -18.1875 L -7.625 -5.84375 L -0.765625 -3.796875 C -0.253906 -3.671875 0 -3.28125 0 -2.625 C 0 -2.207031 -0.117188 -1.820312 -0.359375 -1.46875 C -0.597656 -1.113281 -0.894531 -0.9375 -1.25 -0.9375 Z M -10.171875 -6.59375 L -10.171875 -17.4375 L -28.140625 -12.046875 Z M -10.171875 -6.59375 "/></g></g></g><g fill="#602556" fill-opacity="1"><g transform="translate(94.67322, 111.872399)"><g><path d="M -9.28125 -3.25 L -31.53125 -3.25 C -32.238281 -3.25 -32.59375 -3.738281 -32.59375 -4.71875 C -32.59375 -5.707031 -32.238281 -6.203125 -31.53125 -6.203125 L -9.28125 -6.203125 C -7.019531 -6.203125 -5.316406 -6.757812 -4.171875 -7.875 C -3.023438 -8.988281 -2.453125 -10.570312 -2.453125 -12.625 C -2.453125 -14.675781 -3.023438 -16.257812 -4.171875 -17.375 C -5.316406 -18.488281 -7.019531 -19.046875 -9.28125 -19.046875 L -31.53125 -19.046875 C -32.238281 -19.046875 -32.59375 -19.535156 -32.59375 -20.515625 C -32.59375 -21.492188 -32.238281 -21.984375 -31.53125 -21.984375 L -9.28125 -21.984375 C -5.976562 -21.984375 -3.5625 -21.128906 -2.03125 -19.421875 C -0.5 -17.710938 0.265625 -15.445312 0.265625 -12.625 C 0.265625 -9.800781 -0.5 -7.53125 -2.03125 -5.8125 C -3.5625 -4.101562 -5.976562 -3.25 -9.28125 -3.25 Z M -9.28125 -3.25 "/></g></g></g><g fill="#602556" fill-opacity="1"><g transform="translate(94.67322, 86.635561)"><g><path d="M -9.28125 -3.03125 L -23.09375 -3.03125 C -26.332031 -3.03125 -28.722656 -3.898438 -30.265625 -5.640625 C -31.816406 -7.378906 -32.59375 -9.628906 -32.59375 -12.390625 C -32.59375 -15.222656 -31.867188 -17.460938 -30.421875 -19.109375 C -28.984375 -20.753906 -27.226562 -21.578125 -25.15625 -21.578125 C -24.4375 -21.578125 -23.957031 -21.46875 -23.71875 -21.25 C -23.476562 -21.03125 -23.359375 -20.648438 -23.359375 -20.109375 C -23.359375 -19.191406 -23.734375 -18.703125 -24.484375 -18.640625 C -24.929688 -18.609375 -25.363281 -18.546875 -25.78125 -18.453125 C -26.195312 -18.367188 -26.660156 -18.191406 -27.171875 -17.921875 C -27.691406 -17.660156 -28.144531 -17.3125 -28.53125 -16.875 C -28.925781 -16.445312 -29.25 -15.84375 -29.5 -15.0625 C -29.75 -14.289062 -29.875 -13.398438 -29.875 -12.390625 C -29.875 -8.109375 -27.613281 -5.96875 -23.09375 -5.96875 L -9.28125 -5.96875 C -4.726562 -5.96875 -2.453125 -8.171875 -2.453125 -12.578125 C -2.453125 -13.828125 -2.625 -14.867188 -2.96875 -15.703125 C -3.3125 -16.535156 -3.804688 -17.144531 -4.453125 -17.53125 C -5.109375 -17.914062 -5.664062 -18.171875 -6.125 -18.296875 C -6.59375 -18.429688 -7.195312 -18.546875 -7.9375 -18.640625 C -8.707031 -18.734375 -9.09375 -19.222656 -9.09375 -20.109375 C -9.09375 -20.648438 -8.96875 -21.03125 -8.71875 -21.25 C -8.46875 -21.46875 -7.984375 -21.578125 -7.265625 -21.578125 C -5.160156 -21.578125 -3.378906 -20.738281 -1.921875 -19.0625 C -0.460938 -17.382812 0.265625 -15.117188 0.265625 -12.265625 C 0.265625 -9.523438 -0.503906 -7.300781 -2.046875 -5.59375 C -3.597656 -3.882812 -6.007812 -3.03125 -9.28125 -3.03125 Z M -9.28125 -3.03125 "/></g></g></g><g fill="#602556" fill-opacity="1"><g transform="translate(94.67322, 63.316008)"><g><path d="M -1.15625 -3.390625 L -31.484375 -3.390625 C -31.835938 -3.390625 -32.109375 -3.519531 -32.296875 -3.78125 C -32.492188 -4.050781 -32.59375 -4.367188 -32.59375 -4.734375 L -32.59375 -20.609375 C -32.59375 -21.347656 -32.164062 -21.71875 -31.3125 -21.71875 C -30.914062 -21.71875 -30.578125 -21.617188 -30.296875 -21.421875 C -30.015625 -21.234375 -29.875 -20.960938 -29.875 -20.609375 L -29.875 -6.328125 L -17.609375 -6.328125 L -17.609375 -13.328125 C -17.609375 -13.691406 -17.484375 -13.96875 -17.234375 -14.15625 C -16.984375 -14.351562 -16.664062 -14.453125 -16.28125 -14.453125 C -15.476562 -14.453125 -15.078125 -14.078125 -15.078125 -13.328125 L -15.078125 -6.328125 L -2.71875 -6.328125 L -2.71875 -20.609375 C -2.71875 -20.929688 -2.582031 -21.195312 -2.3125 -21.40625 C -2.050781 -21.613281 -1.726562 -21.71875 -1.34375 -21.71875 C -0.445312 -21.71875 0 -21.347656 0 -20.609375 L 0 -4.734375 C 0 -4.367188 -0.101562 -4.050781 -0.3125 -3.78125 C -0.519531 -3.519531 -0.800781 -3.390625 -1.15625 -3.390625 Z M -1.15625 -3.390625 "/></g></g></g><g fill="#602556" fill-opacity="1"><g transform="translate(77.486851, 285.856181)"><g><path d="M 25.796875 -8.828125 L 25.796875 -240 C 25.796875 -244.976562 28.96875 -247.695312 35.3125 -248.15625 L 97.765625 -248.15625 C 119.035156 -248.15625 136.007812 -242.382812 148.6875 -230.84375 C 161.363281 -219.300781 167.703125 -201.082031 167.703125 -176.1875 L 167.703125 -172.796875 C 167.703125 -147.898438 161.304688 -129.625 148.515625 -117.96875 C 135.734375 -106.3125 118.59375 -100.484375 97.09375 -100.484375 L 48.203125 -100.484375 L 48.203125 -8.828125 C 48.203125 -6.109375 47.070312 -3.957031 44.8125 -2.375 C 42.550781 -0.789062 39.945312 0 37 0 C 33.832031 0 31.171875 -0.789062 29.015625 -2.375 C 26.867188 -3.957031 25.796875 -6.109375 25.796875 -8.828125 Z M 48.203125 -119.828125 L 97.09375 -119.828125 C 112.476562 -119.828125 124.359375 -124.125 132.734375 -132.71875 C 141.109375 -141.320312 145.296875 -154.335938 145.296875 -171.765625 L 145.296875 -175.84375 C 145.296875 -210.238281 129.226562 -227.4375 97.09375 -227.4375 L 48.203125 -227.4375 Z M 48.203125 -119.828125 "/></g></g></g><g fill="#c6153a" fill-opacity="1"><g transform="translate(130.813006, 344.614019)"><g><path d="M 12.515625 -35.109375 C 12.515625 -37.890625 13.613281 -40.726562 15.8125 -43.625 C 18.019531 -46.519531 20.394531 -47.96875 22.9375 -47.96875 C 24.789062 -47.96875 27.109375 -46.460938 29.890625 -43.453125 L 39.625 -33.375 C 43.101562 -29.664062 48.609375 -26.363281 56.140625 -23.46875 C 63.671875 -20.570312 72.421875 -19.125 82.390625 -19.125 C 98.847656 -19.125 111.59375 -23.234375 120.625 -31.453125 C 129.664062 -39.679688 134.1875 -51.5625 134.1875 -67.09375 C 134.1875 -77.519531 132.039062 -86.382812 127.75 -93.6875 C 123.46875 -100.988281 117.96875 -106.609375 111.25 -110.546875 C 104.757812 -114.722656 97.34375 -118.429688 89 -121.671875 L 63.96875 -131.40625 C 55.625 -134.65625 48.148438 -138.535156 41.546875 -143.046875 C 34.941406 -147.566406 29.492188 -153.941406 25.203125 -162.171875 C 20.910156 -170.398438 18.765625 -180.191406 18.765625 -191.546875 C 18.765625 -203.597656 21.023438 -213.96875 25.546875 -222.65625 C 30.066406 -231.351562 36.148438 -237.898438 43.796875 -242.296875 C 51.453125 -246.703125 59.273438 -249.890625 67.265625 -251.859375 C 75.265625 -253.835938 83.664062 -254.828125 92.46875 -254.828125 C 106.601562 -254.828125 119.867188 -252.796875 132.265625 -248.734375 C 144.671875 -244.679688 150.875 -239.640625 150.875 -233.609375 C 150.875 -230.828125 149.890625 -227.988281 147.921875 -225.09375 C 145.953125 -222.195312 143.578125 -220.75 140.796875 -220.75 C 139.398438 -220.75 136.734375 -221.847656 132.796875 -224.046875 C 128.859375 -226.253906 123.351562 -228.457031 116.28125 -230.65625 C 109.21875 -232.863281 101.164062 -233.96875 92.125 -233.96875 C 77.519531 -233.96875 65.46875 -230.835938 55.96875 -224.578125 C 46.46875 -218.316406 41.71875 -208.003906 41.71875 -193.640625 C 41.71875 -183.671875 44.554688 -175.328125 50.234375 -168.609375 C 55.910156 -161.890625 63.035156 -157.019531 71.609375 -154 C 80.191406 -150.988281 89.460938 -147.394531 99.421875 -143.21875 C 109.390625 -139.050781 118.660156 -134.59375 127.234375 -129.84375 C 135.804688 -125.09375 142.929688 -117.5625 148.609375 -107.25 C 154.296875 -96.9375 157.140625 -84.25 157.140625 -69.1875 C 157.140625 -45.3125 150.53125 -27.40625 137.3125 -15.46875 C 124.101562 -3.53125 106.257812 2.4375 83.78125 2.4375 C 63.613281 2.4375 46.691406 -1.90625 33.015625 -10.59375 C 19.347656 -19.289062 12.515625 -27.460938 12.515625 -35.109375 Z M 12.515625 -35.109375 "/></g></g></g></svg>