<svg xmlns="http://www.w3.org/2000/svg" xmlns:xlink="http://www.w3.org/1999/xlink" width="100" zoomAndPan="magnify" viewBox="0 0 75 74.999997" height="100" preserveAspectRatio="xMidYMid meet" version="1.0"><defs><clipPath id="5156f8db86"><path d="M 1 0.625 L 73.742188 0.625 L 73.742188 74.125 L 1 74.125 Z M 1 0.625 " clip-rule="nonzero"/></clipPath></defs><g clip-path="url(#5156f8db86)"><path fill="#c6153a" d="M 41.617188 74.125 L 41.273438 74.015625 C 36.542969 72.535156 34.476562 67.199219 33.667969 64.148438 C 33.347656 62.957031 33.011719 61.242188 33.070312 59.480469 C 32.40625 60.265625 31.636719 60.964844 30.789062 61.535156 C 30.125 61.980469 29.402344 62.363281 28.703125 62.730469 C 27.511719 63.359375 26.277344 64.007812 25.347656 64.984375 C 24.464844 65.914062 23.992188 67.351562 24.175781 68.566406 C 24.265625 69.144531 24.539062 69.925781 25.355469 70.378906 L 25.730469 70.589844 L 25.308594 70.65625 C 23.859375 70.894531 22.257812 70.023438 21.417969 68.539062 C 20.765625 67.390625 20.511719 65.921875 20.640625 64.046875 C 20.773438 62.101562 21.25 60.347656 22.035156 58.898438 C 19.363281 60.699219 17.542969 63.757812 17.386719 67 L 17.375 67.179688 L 17.199219 67.136719 C 15.875 66.816406 14.777344 65.9375 14.035156 64.597656 C 13.074219 62.867188 12.863281 60.617188 13.488281 58.726562 C 13.847656 57.636719 14.394531 56.648438 15.066406 55.734375 C 14.539062 55.914062 14.007812 56.082031 13.472656 56.246094 C 11.066406 56.992188 8.304688 57.585938 6.058594 56.378906 L 5.929688 56.308594 L 6 56.179688 C 7.578125 53.175781 10.050781 50.660156 13.160156 48.90625 C 13.433594 48.75 13.714844 48.601562 13.996094 48.460938 C 13.558594 48.476562 13.117188 48.480469 12.675781 48.476562 C 9.085938 48.445312 5.578125 47.832031 2.257812 46.648438 C 1.957031 46.542969 1.667969 46.425781 1.472656 46.183594 C 1.027344 45.636719 1.324219 44.835938 1.753906 44.265625 C 3.449219 42.015625 6.398438 40.722656 10.765625 40.308594 C 10.800781 40.304688 10.832031 40.304688 10.867188 40.300781 C 8.929688 39.683594 7.007812 39.039062 5.101562 38.363281 C 3.121094 37.660156 2.117188 36.707031 2.121094 35.535156 C 2.125 33.863281 4.199219 33.074219 4.832031 32.871094 C 6.6875 32.277344 8.648438 32.101562 10.578125 32.292969 C 8.023438 30.113281 5.351562 27.996094 2.128906 27.441406 L 1.757812 27.378906 L 2.074219 27.167969 C 4.296875 25.71875 6.960938 24.941406 9.625 24.90625 C 8.710938 23.804688 8.023438 22.675781 7.554688 21.800781 C 6.6875 20.171875 6.121094 18.535156 6.230469 18.269531 C 6.367188 17.921875 7.554688 17.640625 8.992188 17.613281 C 10.417969 17.585938 13.269531 17.792969 16.304688 19.503906 C 16.703125 19.726562 17.085938 19.964844 17.460938 20.222656 C 15.128906 14.898438 11.019531 11.367188 10.972656 11.328125 L 10.726562 11.117188 L 11.042969 11.066406 C 11.324219 11.019531 17.957031 9.925781 19.867188 10.933594 C 21.042969 11.550781 22.097656 12.269531 23.039062 13.097656 C 22.65625 10.378906 22.722656 7.625 23.238281 5 L 23.265625 4.859375 L 23.40625 4.878906 C 25.507812 5.175781 27.59375 6.023438 29.441406 7.332031 C 29.988281 7.722656 30.515625 8.152344 31.011719 8.617188 C 31.125 7.78125 31.308594 6.964844 31.558594 6.179688 C 32.28125 3.90625 33.550781 2.015625 35.230469 0.710938 L 35.339844 0.625 L 35.433594 0.726562 C 37.421875 2.914062 38.933594 5.621094 39.847656 8.566406 C 40.285156 7.878906 40.773438 7.234375 41.316406 6.640625 C 42.824219 4.992188 44.65625 3.859375 46.613281 3.367188 L 46.75 3.332031 L 46.792969 3.472656 C 47.699219 6.601562 47.925781 9.957031 47.46875 13.285156 C 47.851562 12.824219 48.257812 12.382812 48.699219 11.96875 C 50.621094 10.164062 53.792969 8.5625 56.9375 9.488281 L 57.089844 9.53125 L 57.035156 9.679688 C 56.5625 11.042969 56.046875 12.492188 55.464844 13.957031 C 57.246094 12.957031 59.183594 12.570312 60.894531 12.890625 C 61.207031 12.949219 61.59375 13.058594 61.785156 13.386719 C 61.96875 13.703125 61.890625 14.074219 61.78125 14.429688 C 61.234375 16.207031 60.441406 17.902344 59.449219 19.472656 C 60.695312 19.246094 61.984375 19.164062 63.257812 19.234375 C 65.367188 19.351562 67.460938 19.890625 69.316406 20.789062 L 69.496094 20.875 L 69.359375 21.023438 C 67.417969 23.136719 65.15625 24.960938 62.691406 26.445312 C 65.914062 26.585938 68.8125 27.789062 70.71875 29.847656 L 70.835938 29.972656 L 70.699219 30.070312 C 68.894531 31.367188 66.933594 32.4375 64.871094 33.265625 C 67.847656 34.210938 70.546875 35.847656 72.621094 37.984375 C 73.097656 38.472656 73.710938 39.222656 73.503906 40.039062 L 73.480469 40.125 L 73.398438 40.148438 C 71.351562 40.714844 69.132812 41.332031 66.824219 41.820312 C 67.375 42.210938 67.894531 42.636719 68.371094 43.09375 C 69.96875 44.628906 71.03125 46.464844 71.441406 48.398438 L 71.484375 48.59375 L 71.285156 48.578125 C 69.152344 48.40625 66.976562 48.554688 64.871094 48.699219 C 63.539062 48.789062 62.160156 48.882812 60.804688 48.898438 C 61.328125 49.453125 61.808594 50.046875 62.238281 50.679688 C 62.558594 51.144531 62.855469 51.636719 63.144531 52.113281 C 63.613281 52.890625 64.097656 53.691406 64.683594 54.390625 C 65.761719 55.683594 67.105469 56.410156 68.363281 56.390625 L 68.648438 56.386719 L 68.488281 56.625 C 67.804688 57.625 66.378906 57.597656 65.363281 57.488281 C 62.148438 57.140625 58.949219 56.417969 55.871094 55.347656 C 56.269531 55.804688 56.644531 56.285156 56.984375 56.789062 C 58.019531 58.3125 58.703125 60.109375 58.910156 61.84375 C 59.136719 63.761719 58.792969 65.546875 57.914062 67.007812 L 57.71875 67.328125 L 57.640625 66.960938 C 57.136719 64.710938 54.921875 63.359375 53.152344 62.621094 C 52.558594 62.375 51.941406 62.152344 51.339844 61.9375 C 50.367188 61.589844 49.371094 61.230469 48.441406 60.75 C 48.632812 61.539062 48.761719 62.3125 48.832031 63.070312 C 48.988281 64.742188 48.835938 66.4375 48.382812 67.972656 C 47.894531 69.640625 47.089844 71.0625 45.992188 72.207031 L 45.804688 72.398438 L 45.738281 72.140625 C 44.839844 68.710938 43.539062 65.417969 41.851562 62.3125 C 41.921875 64.128906 41.796875 65.953125 41.476562 67.734375 C 41.429688 67.980469 41.382812 68.226562 41.335938 68.476562 C 40.984375 70.3125 40.621094 72.210938 41.449219 73.804688 Z M 33.382812 59.09375 C 33.257812 60.929688 33.609375 62.773438 33.953125 64.074219 C 34.730469 66.992188 36.671875 72.042969 41.035156 73.621094 C 40.359375 72.011719 40.707031 70.1875 41.046875 68.421875 C 41.09375 68.171875 41.140625 67.925781 41.183594 67.683594 C 41.535156 65.722656 41.648438 63.714844 41.527344 61.71875 C 41.195312 61.132812 40.851562 60.554688 40.496094 59.984375 L 40.449219 59.910156 C 39.539062 58.453125 38.507812 56.804688 38.902344 55.089844 L 38.921875 55.015625 L 38.992188 54.984375 C 39.28125 54.871094 39.570312 54.886719 39.851562 55.027344 C 40.460938 55.335938 40.871094 56.164062 41.03125 56.777344 C 41.453125 58.359375 41.714844 59.992188 41.820312 61.632812 C 43.617188 64.835938 45.003906 68.246094 45.960938 71.804688 C 47.886719 69.667969 48.847656 66.4375 48.539062 63.097656 C 48.460938 62.269531 48.308594 61.425781 48.085938 60.558594 C 47.738281 60.363281 47.402344 60.148438 47.085938 59.90625 C 45.261719 58.53125 44.082031 55.917969 45.261719 53.921875 L 45.390625 53.707031 L 45.519531 53.925781 C 46.871094 56.214844 47.804688 58.339844 48.34375 60.359375 C 49.320312 60.894531 50.394531 61.28125 51.441406 61.65625 C 52.046875 61.871094 52.667969 62.097656 53.269531 62.347656 C 55.007812 63.070312 57.167969 64.378906 57.835938 66.539062 C 59.472656 63.457031 58.492188 59.542969 56.738281 56.957031 C 56.300781 56.3125 55.8125 55.707031 55.28125 55.136719 C 53.027344 54.316406 50.839844 53.308594 48.765625 52.128906 C 48.253906 51.839844 47.691406 51.476562 47.480469 50.890625 C 47.355469 50.535156 47.4375 50.09375 47.683594 49.789062 C 47.875 49.554688 48.140625 49.441406 48.40625 49.480469 C 48.636719 49.511719 48.828125 49.644531 48.984375 49.75 C 51.148438 51.214844 53.539062 52.828125 55.453125 54.882812 C 58.664062 56.046875 62.023438 56.828125 65.394531 57.191406 C 66.246094 57.285156 67.402344 57.320312 68.054688 56.679688 C 66.800781 56.589844 65.503906 55.839844 64.453125 54.585938 C 63.851562 53.867188 63.363281 53.054688 62.886719 52.269531 C 62.601562 51.796875 62.308594 51.308594 61.992188 50.847656 C 61.519531 50.152344 60.980469 49.5 60.390625 48.898438 C 56.210938 48.875 52.960938 47.894531 50.726562 45.976562 C 50.25 45.566406 50.066406 45.167969 50.183594 44.796875 C 50.320312 44.351562 50.851562 44.140625 51.605469 44.230469 C 54.957031 44.628906 58.136719 46.214844 60.515625 48.601562 C 60.59375 48.601562 60.667969 48.601562 60.746094 48.597656 C 62.113281 48.589844 63.503906 48.492188 64.851562 48.402344 C 66.902344 48.261719 69.019531 48.117188 71.105469 48.265625 C 70.449219 45.472656 68.570312 43.351562 66.421875 41.902344 C 62.074219 42.792969 57.433594 43.203125 53.054688 41.988281 C 52.199219 41.75 51.125 41.207031 50.667969 40.390625 C 50.449219 40 50.402344 39.59375 50.519531 39.183594 L 50.546875 39.085938 L 50.652344 39.078125 C 54.734375 38.71875 59.058594 38.566406 62.992188 39.882812 C 64.242188 40.300781 65.421875 40.878906 66.484375 41.585938 C 68.851562 41.097656 71.128906 40.464844 73.230469 39.882812 C 73.316406 39.394531 73.050781 38.851562 72.410156 38.191406 C 70.21875 35.933594 67.441406 34.324219 64.445312 33.433594 C 61.210938 34.675781 57.746094 35.324219 54.285156 35.324219 C 53.1875 35.324219 52.089844 35.261719 51 35.128906 L 50.890625 35.113281 L 50.871094 35.007812 C 50.773438 34.480469 51.1875 33.988281 52 33.660156 C 55.339844 32.300781 59.230469 31.980469 62.953125 32.761719 C 63.445312 32.867188 63.933594 32.988281 64.414062 33.128906 C 66.527344 32.308594 68.539062 31.238281 70.386719 29.929688 C 68.433594 27.90625 65.476562 26.765625 62.207031 26.734375 C 58.433594 28.910156 54.203125 30.304688 49.878906 30.722656 L 49.160156 30.792969 L 49.792969 30.445312 C 52.988281 28.679688 56.472656 26.984375 60.289062 26.535156 C 60.910156 26.464844 61.523438 26.429688 62.128906 26.433594 C 64.671875 24.953125 67 23.113281 69.003906 20.96875 C 65.960938 19.546875 62.503906 19.148438 59.230469 19.816406 C 56.601562 23.816406 52.667969 26.972656 48.144531 28.542969 L 47.808594 28.660156 L 47.960938 28.339844 C 49.761719 24.515625 53.078125 21.515625 57.0625 20.105469 C 57.703125 19.878906 58.367188 19.695312 59.046875 19.550781 C 60.09375 17.9375 60.929688 16.183594 61.496094 14.339844 C 61.582031 14.070312 61.660156 13.761719 61.527344 13.539062 C 61.398438 13.3125 61.089844 13.230469 60.839844 13.183594 C 59.089844 12.855469 57.09375 13.300781 55.285156 14.40625 C 54.554688 16.207031 53.71875 18.007812 52.742188 19.671875 C 50.683594 23.183594 48.277344 25.59375 45.382812 27.050781 L 44.953125 27.265625 L 45.183594 26.84375 C 46.652344 24.191406 48.3125 21.613281 50.121094 19.179688 C 51.382812 17.484375 52.804688 15.738281 54.640625 14.472656 C 54.769531 14.378906 54.902344 14.292969 55.035156 14.210938 C 55.632812 12.742188 56.179688 11.234375 56.703125 9.730469 C 53.726562 8.9375 50.734375 10.464844 48.90625 12.183594 C 48.347656 12.707031 47.84375 13.273438 47.382812 13.871094 C 47.300781 14.378906 47.203125 14.886719 47.085938 15.394531 C 46.179688 19.402344 44.316406 23.078125 41.691406 26.027344 L 41.382812 26.375 L 41.429688 25.914062 C 41.683594 23.546875 42.8125 21.316406 43.8125 19.347656 C 44.78125 17.4375 45.773438 15.480469 47.089844 13.761719 C 47.625 10.410156 47.464844 6.949219 46.546875 3.691406 C 43.921875 4.398438 41.554688 6.335938 39.964844 8.953125 C 40.277344 10.027344 40.511719 11.128906 40.65625 12.253906 C 41.230469 16.609375 40.5 21.042969 38.59375 24.738281 L 38.40625 25.105469 L 38.316406 24.703125 C 37.21875 19.644531 37.191406 15.667969 38.21875 12.179688 C 38.558594 11.03125 39.035156 9.9375 39.632812 8.925781 C 38.777344 6.007812 37.324219 3.28125 35.308594 1.03125 C 33.105469 2.800781 31.679688 5.664062 31.289062 8.875 C 32.289062 9.851562 33.164062 10.964844 33.871094 12.167969 C 34.980469 14.054688 35.808594 16.207031 36.269531 18.394531 C 36.742188 20.644531 36.828125 22.945312 36.515625 25.042969 L 36.453125 25.457031 L 36.238281 25.09375 C 36.191406 25.019531 31.652344 17.277344 31.035156 12.894531 C 30.847656 11.582031 30.828125 10.257812 30.972656 8.972656 C 28.871094 6.960938 26.257812 5.613281 23.507812 5.195312 C 22.996094 7.894531 22.972656 10.691406 23.402344 13.425781 C 24.511719 14.46875 25.457031 15.675781 26.246094 17.058594 C 27.578125 19.378906 28.476562 22.214844 28.996094 25.71875 L 29.070312 26.230469 L 28.734375 25.839844 C 26.359375 23.074219 24.59375 19.683594 23.632812 16.039062 C 23.417969 15.222656 23.242188 14.398438 23.113281 13.570312 C 22.117188 12.648438 20.992188 11.859375 19.730469 11.195312 C 18.136719 10.355469 12.757812 11.105469 11.40625 11.308594 C 11.890625 11.757812 13.066406 12.886719 14.351562 14.523438 C 15.496094 15.976562 16.902344 18.058594 17.925781 20.554688 C 20.359375 22.359375 22.332031 24.921875 23.808594 28.203125 L 24.007812 28.644531 L 23.597656 28.390625 C 23.480469 28.320312 23.359375 28.246094 23.242188 28.171875 C 21.296875 26.988281 19.09375 25.644531 18.566406 23.460938 C 18.332031 22.507812 18.027344 21.589844 17.671875 20.71875 C 14.902344 18.6875 12.09375 18.085938 10.199219 17.945312 C 7.996094 17.777344 6.65625 18.207031 6.511719 18.375 C 6.507812 18.664062 7.164062 20.777344 8.65625 23.082031 C 9.035156 23.664062 9.488281 24.289062 10.015625 24.902344 C 11.101562 24.917969 12.1875 25.058594 13.238281 25.328125 C 16.988281 26.289062 20.3125 28.902344 22.136719 32.316406 L 22.382812 32.78125 L 21.929688 32.515625 C 21.183594 32.082031 20.460938 31.550781 19.761719 31.042969 C 18.382812 30.035156 16.960938 28.992188 15.316406 28.644531 C 13.039062 28.160156 11.230469 26.742188 9.878906 25.199219 C 7.3125 25.183594 4.738281 25.882812 2.554688 27.21875 C 5.828125 27.90625 8.519531 30.132812 11.113281 32.351562 C 15.03125 32.878906 18.765625 34.925781 21.136719 38.109375 L 21.339844 38.382812 L 21 38.347656 C 17.1875 37.957031 14.160156 35.359375 11.234375 32.847656 C 11.148438 32.777344 11.066406 32.707031 10.984375 32.636719 C 8.957031 32.375 6.878906 32.527344 4.925781 33.152344 C 4.339844 33.339844 2.425781 34.0625 2.417969 35.53125 C 2.417969 36.566406 3.351562 37.421875 5.203125 38.078125 C 7.339844 38.835938 9.496094 39.558594 11.671875 40.238281 C 15.820312 39.992188 18.898438 40.878906 20.832031 42.871094 L 21.199219 43.25 L 20.6875 43.117188 C 17.660156 42.339844 14.632812 41.476562 11.632812 40.539062 C 11.359375 40.554688 11.078125 40.578125 10.796875 40.605469 C 6.515625 41.007812 3.636719 42.261719 1.992188 44.441406 C 1.632812 44.921875 1.367188 45.578125 1.703125 45.992188 C 1.851562 46.175781 2.097656 46.273438 2.355469 46.367188 C 6.308594 47.773438 10.507812 48.363281 14.664062 48.136719 C 17.355469 46.914062 20.234375 46.363281 23.082031 46.53125 L 23.851562 46.574219 L 23.125 46.820312 C 20.441406 47.722656 17.652344 48.261719 14.796875 48.421875 C 11.242188 50.039062 8.171875 52.761719 6.332031 56.183594 C 8.457031 57.246094 11.085938 56.671875 13.386719 55.960938 C 14.058594 55.753906 14.726562 55.535156 15.394531 55.308594 C 16.664062 53.710938 18.304688 52.335938 19.9375 51.042969 C 21.046875 50.164062 22.0625 49.414062 23.292969 49.148438 C 24.515625 48.882812 26.144531 49.277344 26.757812 50.535156 L 26.820312 50.664062 L 26.691406 50.730469 C 23.128906 52.632812 19.398438 54.257812 15.574219 55.5625 C 14.796875 56.550781 14.167969 57.625 13.773438 58.816406 C 13.175781 60.632812 13.375 62.789062 14.296875 64.449219 C 14.765625 65.300781 15.632812 66.378906 17.097656 66.800781 C 17.332031 63.335938 19.398438 60.101562 22.363281 58.335938 C 22.488281 58.140625 22.617188 57.953125 22.753906 57.769531 C 24.175781 55.867188 26.363281 54.683594 28.476562 54.683594 C 28.484375 54.683594 28.492188 54.683594 28.503906 54.683594 L 28.691406 54.6875 L 28.648438 54.867188 C 28.273438 56.457031 26.519531 57.03125 24.96875 57.539062 C 24.738281 57.613281 24.519531 57.683594 24.304688 57.757812 C 23.703125 57.96875 23.125 58.234375 22.578125 58.554688 C 21.648438 60.050781 21.082031 61.941406 20.9375 64.066406 C 20.8125 65.878906 21.054688 67.292969 21.675781 68.390625 C 22.375 69.617188 23.621094 70.394531 24.824219 70.394531 C 24.832031 70.394531 24.839844 70.394531 24.851562 70.394531 C 24.328125 69.976562 23.996094 69.367188 23.882812 68.609375 C 23.683594 67.308594 24.1875 65.765625 25.128906 64.777344 C 26.097656 63.765625 27.351562 63.101562 28.5625 62.464844 C 29.253906 62.097656 29.972656 61.722656 30.621094 61.285156 C 31.558594 60.65625 32.394531 59.867188 33.097656 58.96875 C 33.105469 58.878906 33.113281 58.789062 33.125 58.699219 C 33.332031 56.695312 34.082031 55.128906 35.34375 54.046875 L 35.664062 53.773438 L 35.585938 54.1875 C 35.269531 55.957031 34.492188 57.660156 33.382812 59.09375 Z M 39.175781 55.238281 C 38.859375 56.804688 39.839844 58.367188 40.703125 59.753906 L 40.75 59.824219 C 40.996094 60.222656 41.238281 60.621094 41.472656 61.027344 C 41.347656 59.617188 41.105469 58.21875 40.742188 56.855469 C 40.585938 56.253906 40.207031 55.539062 39.71875 55.292969 C 39.535156 55.203125 39.359375 55.183594 39.175781 55.238281 Z M 45.398438 54.304688 C 44.535156 56.105469 45.652344 58.453125 47.265625 59.667969 C 47.492188 59.839844 47.730469 60 47.976562 60.148438 C 47.453125 58.308594 46.597656 56.375 45.398438 54.304688 Z M 35.203125 54.589844 C 34.128906 55.671875 33.617188 57.074219 33.4375 58.519531 C 34.273438 57.335938 34.886719 55.988281 35.203125 54.589844 Z M 28.304688 54.988281 C 26.339844 55.050781 24.320312 56.171875 22.992188 57.949219 C 22.976562 57.972656 22.960938 57.996094 22.941406 58.019531 C 23.351562 57.808594 23.773438 57.628906 24.207031 57.480469 C 24.425781 57.402344 24.644531 57.332031 24.875 57.257812 C 26.351562 56.773438 27.878906 56.277344 28.304688 54.988281 Z M 24.054688 49.367188 C 23.8125 49.367188 23.578125 49.394531 23.355469 49.441406 C 22.191406 49.695312 21.199219 50.425781 20.121094 51.28125 C 18.632812 52.457031 17.140625 53.703125 15.933594 55.125 C 19.539062 53.867188 23.054688 52.332031 26.421875 50.539062 C 25.953125 49.730469 24.972656 49.367188 24.054688 49.367188 Z M 48.304688 49.769531 C 48.113281 49.769531 47.980469 49.898438 47.914062 49.976562 C 47.734375 50.199219 47.671875 50.535156 47.761719 50.789062 C 47.9375 51.28125 48.425781 51.59375 48.914062 51.871094 C 50.796875 52.941406 52.769531 53.867188 54.804688 54.640625 C 52.988281 52.820312 50.808594 51.34375 48.816406 49.996094 C 48.679688 49.902344 48.523438 49.796875 48.367188 49.773438 C 48.34375 49.773438 48.324219 49.769531 48.304688 49.769531 Z M 51.28125 44.507812 C 50.972656 44.507812 50.566406 44.570312 50.464844 44.886719 C 50.371094 45.195312 50.660156 45.523438 50.921875 45.75 C 53.046875 47.570312 56.125 48.527344 60.085938 48.597656 C 57.777344 46.378906 54.75 44.90625 51.570312 44.527344 C 51.507812 44.519531 51.402344 44.507812 51.28125 44.507812 Z M 22.113281 46.800781 C 19.902344 46.800781 17.691406 47.253906 15.625 48.074219 C 17.851562 47.886719 20.0625 47.460938 22.210938 46.800781 C 22.179688 46.800781 22.148438 46.800781 22.113281 46.800781 Z M 12.519531 40.503906 C 15.070312 41.289062 17.636719 42.019531 20.203125 42.6875 C 18.460938 41.160156 15.882812 40.429688 12.519531 40.503906 Z M 50.78125 39.367188 C 50.71875 39.664062 50.769531 39.957031 50.925781 40.246094 C 51.339844 40.980469 52.371094 41.492188 53.132812 41.699219 C 57.355469 42.871094 61.839844 42.511719 66.0625 41.671875 C 65.023438 41.015625 63.933594 40.515625 62.898438 40.167969 C 59.046875 38.878906 54.800781 39.015625 50.78125 39.367188 Z M 11.535156 32.71875 C 14.304688 35.09375 17.171875 37.515625 20.679688 38.011719 C 18.449219 35.171875 15.089844 33.308594 11.535156 32.71875 Z M 51.15625 34.847656 C 55.464844 35.347656 59.886719 34.792969 63.960938 33.296875 C 60.074219 32.253906 55.863281 32.410156 52.113281 33.933594 C 51.882812 34.03125 51.167969 34.359375 51.15625 34.847656 Z M 10.285156 25.210938 C 11.570312 26.621094 13.265625 27.90625 15.378906 28.355469 C 17.085938 28.714844 18.535156 29.777344 19.9375 30.804688 C 20.476562 31.195312 21.027344 31.601562 21.589844 31.960938 C 19.757812 28.867188 16.648438 26.515625 13.164062 25.621094 C 12.222656 25.378906 11.257812 25.242188 10.285156 25.210938 Z M 61.589844 26.742188 C 61.171875 26.753906 60.75 26.785156 60.324219 26.835938 C 56.820312 27.242188 53.585938 28.730469 50.597656 30.34375 C 54.441406 29.871094 58.191406 28.625 61.589844 26.742188 Z M 58.808594 19.90625 C 58.253906 20.035156 57.703125 20.195312 57.160156 20.386719 C 53.363281 21.730469 50.1875 24.542969 48.386719 28.140625 C 52.609375 26.589844 56.289062 23.632812 58.808594 19.90625 Z M 18.128906 21.070312 C 18.414062 21.8125 18.660156 22.589844 18.855469 23.394531 C 19.347656 25.433594 21.453125 26.734375 23.332031 27.878906 C 21.835938 24.726562 20.003906 22.558594 18.128906 21.070312 Z M 54.835938 14.699219 C 54.824219 14.707031 54.816406 14.710938 54.808594 14.71875 C 53.007812 15.960938 51.605469 17.683594 50.359375 19.359375 C 48.660156 21.648438 47.089844 24.0625 45.6875 26.550781 C 50.085938 24.148438 52.765625 19.667969 54.835938 14.699219 Z M 46.976562 14.417969 C 45.84375 16 44.949219 17.761719 44.078125 19.484375 C 43.117188 21.378906 42.125 23.335938 41.789062 25.457031 C 44.449219 22.328125 46.21875 18.46875 46.976562 14.417969 Z M 23.488281 13.933594 C 24.222656 18.0625 25.980469 22.019531 28.617188 25.238281 C 27.8125 20.277344 26.148438 16.585938 23.488281 13.933594 Z M 31.328125 12.851562 C 31.859375 16.628906 35.363281 22.960938 36.277344 24.566406 C 36.765625 20.5625 35.78125 16.015625 33.613281 12.320312 C 32.945312 11.183594 32.148438 10.152344 31.246094 9.242188 C 31.132812 10.414062 31.15625 11.632812 31.328125 12.851562 Z M 39.746094 9.332031 C 39.230469 10.242188 38.8125 11.226562 38.503906 12.265625 C 37.515625 15.605469 37.519531 19.414062 38.519531 24.222656 C 40.738281 19.667969 41.085938 14.25 39.746094 9.332031 Z M 39.746094 9.332031 " fill-opacity="1" fill-rule="nonzero"/></g></svg>